<svg width="51" height="50" viewBox="0 0 51 50" fill="none" xmlns="http://www.w3.org/2000/svg">
<path d="M24.0537 0H27.6144C31.4253 0 35.761 1.57997 40.6216 4.73991C44.2872 7.60817 46.9435 10.9221 48.5906 14.6816C50.0762 18.2628 50.819 21.285 50.819 23.7482V25.8143C50.819 31.3563 48.5502 36.8498 44.0126 42.2946C38.7484 47.4315 32.6364 50 25.6766 50C16.989 50 9.89198 45.9407 4.38553 37.8221C2.02792 33.4468 0.849121 29.1444 0.849121 24.9149C0.849121 17.9468 3.70731 11.6675 9.42369 6.07681C14.7525 2.0256 19.6292 0 24.0537 0ZM12.5241 21.6578V29.3875C12.5241 33.6007 13.8563 36.4123 16.5207 37.8221C17.7157 38.5027 21.5589 38.7538 28.0504 38.5756C33.0239 38.5756 35.8821 38.0327 36.6249 36.947C38.3043 35.602 39.144 33.3738 39.144 30.2625V20.3209C39.144 16.3993 37.7634 13.8308 35.0021 12.6155L33.1612 12.0078L31.2961 11.8619H20.5173C16.6741 11.8619 14.1066 13.7417 12.8148 17.5012C12.621 18.6518 12.5241 20.0373 12.5241 21.6578ZM20.9533 14.244H31.2961C35.0424 14.244 36.9156 16.221 36.9156 20.175V30.7001C36.415 34.3623 34.889 36.1935 32.3377 36.1935H28.0504C26.048 36.1935 23.9326 36.2421 21.7042 36.3393C17.9902 36.3393 15.8183 35.1564 15.1885 32.7905C14.9947 31.4779 14.8979 29.5009 14.8979 26.8595V23.578C14.8979 18.6356 15.2935 16.1643 16.0847 16.1643C16.876 14.8841 18.4988 14.244 20.9533 14.244ZM31.4414 18.2547C31.8774 19.2432 32.4265 19.7375 33.0885 19.7375C33.7506 19.7375 34.2916 19.2432 34.7114 18.2547C34.4853 17.0556 33.8879 16.456 32.919 16.456C31.934 16.7639 31.4414 17.3635 31.4414 18.2547ZM19.0398 25.3768C19.0398 28.5691 20.8645 30.7892 24.514 32.0369H27.469C31.0054 30.7568 32.7737 28.4881 32.7737 25.2309V24.9149C32.7737 23.0676 31.8371 21.3418 29.9639 19.7375C28.6882 18.8462 27.3641 18.4006 25.9915 18.4006H25.8462C22.7942 18.4006 20.6707 19.9806 19.4758 23.1405C19.3143 23.3512 19.169 24.0966 19.0398 25.3768ZM25.8462 20.7584H25.9915C28.123 20.7584 29.5521 21.9008 30.2788 24.1857C30.3757 24.3153 30.4241 24.6638 30.4241 25.2309C29.9558 28.2936 28.4783 29.825 25.9915 29.825C24.0215 29.825 22.5924 28.8365 21.7042 26.8595C21.575 26.6975 21.4701 26.2032 21.3893 25.3768C21.7446 22.2978 23.2302 20.7584 25.8462 20.7584Z" fill="#F55529"/>
</svg>
